#!OML:ASF I:\golf\golf\golf 2\Subject 1\2002-09-07\Subject1.ASF
:FULLY-SPECIFIED
:DEGREES
277
root 2.30838 16.3783 -3.01365 43.2787 -8.13391 -0.0856684
lowerback 45.8296 12.4791 0.629023
upperback 18.7551 14.4995 7.40625
thorax -1.31239 6.25086 1.98273
lowerneck -9.67834 -10.0351 -4.38505
upperneck 1.17817 -12.872 -6.88173
head 1.8182 -6.6929 -2.03207
rclavicle -1.68569e-013 7.95139e-014
rhumerus 60.0908 -19.6554 -55.9456
rradius 22.6999
rwrist 7.87792
rhand -41.2894 28.9257
rfingers 7.12502
rthumb -14.2105 -0.568194
lclavicle -1.68569e-013 7.95139e-014
lhumerus 9.38025 -60.8629 57.5374
lradius 89.7377
lwrist -26.6262
lhand -51.9507 18.4663
lfingers 7.12502
lthumb -24.4602 46.9246
rfemur -77.9098 -17.7387 26.3984
rtibia 59.6674
rfoot -20.1184 2.86779
rtoes -12.0016
lfemur -84.6777 9.8778 -34.0023
ltibia 53.3204
lfoot -9.29539 -20.5027
ltoes 5.88872
278
root 2.31739 16.3897 -2.98727 43.1745 -7.93399 0.0940436
lowerback 46.2878 12.4273 0.653294
upperback 18.7311 14.4493 7.46885
thorax -1.4554 6.21421 2.01422
lowerneck -9.78935 -10.0556 -4.26273
upperneck 1.18655 -12.908 -6.94639
head 1.82783 -6.71491 -2.08051
rclavicle -6.36111e-015 3.65764e-014
rhumerus 59.988 -19.6888 -55.8013
rradius 22.7314
rwrist 8.4157
rhand -41.537 28.471
rfingers 7.12502
rthumb -14.4491 -1.00601
lclavicle -6.36111e-015 3.65764e-014
lhumerus 9.55434 -60.9148 57.3108
lradius 89.8218
lwrist -26.6355
lhand -51.802 19.2248
lfingers 7.12502
lthumb -24.3177 47.7022
rfemur -77.7095 -17.9411 26.1905
rtibia 59.8367
rfoot -20.339 2.60605
rtoes -12.4382
lfemur -84.4816 9.80964 -34.2439
ltibia 53.3793
lfoot -9.07922 -20.8022
ltoes 7.30011
279
root 2.33716 16.3382 -2.99781 44.3834 -7.2596 0.156032
lowerback 44.8939 11.9948 1.05118
upperback 18.7203 14.1546 7.4449
thorax -1.05126 6.13805 2.04213
lowerneck -9.91514 -10.0059 -4.16273
upperneck 1.1663 -12.8471 -6.96863
head 1.83693 -6.68737 -2.1079
rclavicle 1.27222e-014 2.22639e-014
rhumerus 59.9454 -19.6869 -55.8458
rradius 22.8305
rwrist 8.84254
rhand -41.7523 28.6541
rfingers 7.12502
rthumb -14.6565 -0.807896
lclavicle 1.27222e-014 2.22639e-014
lhumerus 9.44514 -60.8308 57.3425
lradius 89.9604
lwrist -26.72
lhand -50.9806 18.7294
lfingers 7.12502
lthumb -23.53 47.3102
rfemur -79.3552 -18.1689 26.8829
rtibia 60.1101
rfoot -20.3299 2.25701
rtoes -13.4672
lfemur -86.0041 9.06696 -34.3127
ltibia 53.4851
lfoot -8.38015 -21.105
ltoes 8.27755
280
root 2.35101 16.3281 -2.98693 44.7647 -6.89842 0.271785
lowerback 44.6561 11.8157 1.23191
upperback 18.6836 14.0369 7.50122
thorax -1.01295 6.09624 2.07836
lowerneck -9.94449 -9.98775 -4.214
upperneck 1.1847 -12.8138 -6.91041
head 1.85621 -6.67072 -2.08346
rclavicle 1.59028e-014 2.38542e-014
rhumerus 59.9604 -19.7807 -55.955
rradius 22.8534
rwrist 9.30685
rhand -41.972 28.7918
rfingers 7.12502
rthumb -14.8682 -0.654667
lclavicle 1.59028e-014 2.38542e-014
lhumerus 9.63478 -60.9861 57.0864
lradius 89.8616
lwrist -26.6806
lhand -49.7291 16.9827
lfingers 7.12502
lthumb -22.329 45.7125
rfemur -79.8657 -18.3778 27.0335
rtibia 60.3749
rfoot -20.5004 2.11849
rtoes -13.3195
lfemur -86.4333 8.72006 -34.4217
ltibia 53.5557
lfoot -8.20387 -21.3433
ltoes 8.66458
281
root 2.36378 16.3435 -2.96082 44.7095 -6.72443 0.320722
lowerback 44.9369 11.7843 1.31883
upperback 18.6813 14.037 7.5926
thorax -1.09255 6.08811 2.10723
lowerneck -9.8729 -10.0077 -4.39646
upperneck 1.12743 -12.8319 -6.7095
head 1.84888 -6.67299 -1.98599
rclavicle 6.99722e-014 -3.97569e-014
rhumerus 59.9885 -19.8735 -55.9394
rradius 22.7473
rwrist 9.80888
rhand -42.592 29.1293
rfingers 7.12502
rthumb -15.4655 -0.272082
lclavicle 6.99722e-014 -3.97569e-014
lhumerus 9.59713 -61.0674 57.1635
lradius 89.7926
lwrist -26.8093
lhand -49.2154 15.4787
lfingers 7.12502
lthumb -21.8358 44.2667
rfemur -79.6852 -18.4844 26.8847
rtibia 60.5523
rfoot -20.5891 2.26433
rtoes -10.9566
lfemur -86.2459 8.62815 -34.4201
ltibia 53.5972
lfoot -8.18802 -21.4532
ltoes 9.27032
282
root 2.39433 16.2583 -2.98802 46.5793 -5.67278 0.510001
lowerback 42.6264 11.0935 2.08005
upperback 18.6183 13.5697 7.57095
thorax -0.412323 5.9736 2.10831
lowerneck -9.76647 -10.0263 -4.55256
upperneck 0.971434 -12.8634 -6.50421
head 1.80081 -6.6791 -1.88487
rclavicle 6.36111e-014 5.56597e-014
rhumerus 59.8405 -19.8108 -55.5527
rradius 22.8059
rwrist 9.92542
rhand -43.0858 29.1959
rfingers 7.12502
rthumb -15.9409 -0.168122
lclavicle 6.36111e-014 5.56597e-014
lhumerus 9.24223 -60.9396 57.6042
lradius 89.9983
lwrist -26.8858
lhand -49.0157 14.7362
lfingers 7.12502
lthumb -21.6441 43.5464
rfemur -82.2915 -18.8645 27.9104
rtibia 60.9064
rfoot -20.1941 2.18662
rtoes -9.12842
lfemur -88.4896 7.17725 -34.156
ltibia 53.6687
lfoot -7.58398 -21.4635
ltoes 9.26527
